<?xml version="1.0" standalone="no"?>
<!DOCTYPE svg PUBLIC "-//W3C//DTD SVG 20010904//EN"
 "http://www.w3.org/TR/2001/REC-SVG-20010904/DTD/svg10.dtd">
<svg version="1.0" xmlns="http://www.w3.org/2000/svg"
 width="1024.000000pt" height="1024.000000pt" viewBox="0 0 1024.000000 1024.000000"
 preserveAspectRatio="xMidYMid meet">

<g transform="translate(0.000000,1024.000000) scale(0.100000,-0.100000)"
fill="#000000" stroke="none">
<path d="M4885 8320 c-418 -88 -789 -417 -919 -815 -41 -127 -56 -240 -56
-426 l0 -169 -267 0 c-148 0 -288 -5 -312 -11 -115 -26 -219 -109 -266 -212
-30 -65 -39 -123 -70 -467 -35 -373 -116 -1208 -222 -2262 -79 -795 -86 -885
-76 -953 24 -165 125 -306 273 -378 143 -71 6 -67 2148 -67 2133 0 2013 -4
2152 62 88 42 186 141 227 228 38 81 53 149 53 247 0 42 -45 522 -100 1067
-54 545 -131 1316 -170 1714 -43 434 -77 739 -86 764 -38 108 -123 200 -222
240 -54 21 -73 23 -344 26 l-288 3 0 147 c0 237 -34 409 -115 580 -75 157
-178 291 -313 404 -189 159 -369 246 -580 283 -120 21 -334 18 -447 -5z m465
-340 c239 -68 445 -240 566 -472 67 -130 84 -210 91 -420 l6 -178 -886 0 -887
0 0 173 c0 113 5 196 15 242 18 83 79 215 139 299 51 71 170 188 239 235 97
66 248 126 362 145 71 11 281 -3 355 -24z m1010 -1972 c31 -75 39 -518 15
-772 -37 -387 -86 -573 -225 -861 -135 -280 -301 -474 -544 -637 -142 -94
-271 -151 -594 -257 -320 -106 -371 -130 -418 -201 -29 -43 -49 -111 -59 -201
-10 -81 -43 -121 -102 -123 -80 -2 -87 31 -53 239 39 239 87 399 167 560 138
276 335 502 843 967 317 290 420 402 392 430 -18 18 -140 -48 -377 -205 -594
-395 -933 -774 -1109 -1240 -46 -122 -66 -145 -95 -110 -26 31 -68 167 -86
275 -20 124 -20 377 1 499 19 116 79 300 132 406 76 150 159 261 301 404 285
285 594 442 1496 760 138 49 262 88 278 89 19 0 30 -7 37 -22z"/>
</g>
</svg>
